<svg width="24" height="24" viewBox="0 0 24 24" fill="none" xmlns="http://www.w3.org/2000/svg">
<g clip-path="url(#clip0)">
<path d="M19.9107 8.63261C19.6659 8.54861 19.4191 8.47084 19.1703 8.39931C19.2115 8.2317 19.2497 8.06337 19.2847 7.89431C19.8451 5.17367 19.4787 2.98194 18.2273 2.26045C17.0275 1.56845 15.0652 2.28997 13.0834 4.01459C12.8881 4.18492 12.6972 4.3601 12.5107 4.54013C12.3858 4.42045 12.2588 4.30312 12.1296 4.18813C10.0526 2.34394 7.97066 1.56688 6.72058 2.2905C5.52191 2.9844 5.16686 5.04493 5.67144 7.62326C5.72164 7.87859 5.77831 8.13252 5.84144 8.38505C5.54686 8.46872 5.26236 8.55789 4.99017 8.65276C2.55514 9.50169 1 10.8323 1 12.2123C1 13.6378 2.66935 15.0675 5.20575 15.9343C5.41142 16.0043 5.61873 16.0691 5.82768 16.1288C5.75982 16.4008 5.69959 16.6745 5.647 16.9499C5.16594 19.4834 5.54165 21.4951 6.73717 22.1847C7.97198 22.8967 10.0444 22.1649 12.0625 20.4009C12.222 20.2614 12.382 20.114 12.5424 19.9585C12.7444 20.1533 12.9516 20.3424 13.1642 20.5258C15.1189 22.2078 17.0495 22.8871 18.244 22.1956C19.4777 21.4815 19.8785 19.3204 19.358 16.691C19.3183 16.4902 19.2723 16.2853 19.2201 16.0762C19.3656 16.0333 19.5082 15.9888 19.6478 15.9427C22.2845 15.0692 24 13.6568 24 12.2124C24 10.8273 22.3948 9.48775 19.9107 8.63261ZM13.7284 4.75585C15.4265 3.27804 17.0135 2.69461 17.7366 3.11164C18.5067 3.55585 18.8063 5.34704 18.3224 7.69605C18.2907 7.84907 18.2562 8.00148 18.219 8.15329C17.2057 7.92365 16.1784 7.76134 15.1437 7.66745C14.5509 6.81584 13.9014 6.00518 13.1995 5.24098C13.3718 5.07491 13.5481 4.9132 13.7284 4.75585ZM7.79111 13.3913C7.99911 13.793 8.21647 14.1898 8.44318 14.5814C8.67446 14.9808 8.91516 15.3745 9.16528 15.7626C8.45336 15.6853 7.74587 15.5716 7.04561 15.4218C7.24867 14.766 7.49887 14.0845 7.79111 13.3913ZM7.79 11.0804C7.50387 10.4018 7.25907 9.73459 7.05915 9.09026C7.71539 8.94338 8.41515 8.82337 9.14431 8.73226C8.90024 9.11292 8.6652 9.49918 8.43921 9.89103C8.21358 10.2824 7.99717 10.6788 7.79 11.0804ZM8.31228 12.236C8.61502 11.6059 8.94112 10.9878 9.29058 10.3818V10.382C9.63971 9.77625 10.0114 9.18445 10.4058 8.60655C11.0898 8.55484 11.7912 8.52776 12.5001 8.52776C13.2122 8.52776 13.9145 8.55504 14.5983 8.60716C14.9884 9.18374 15.3578 9.77354 15.7065 10.3766C16.0569 10.9808 16.3874 11.5959 16.698 12.222C16.3908 12.8541 16.0614 13.4747 15.7097 14.0837H15.7096C15.3612 14.689 14.9934 15.2824 14.6062 15.864C13.9238 15.9128 13.2186 15.9379 12.5 15.9379C11.7843 15.9379 11.0881 15.9157 10.4176 15.8722C10.0206 15.2922 9.64587 14.6979 9.29353 14.0891C8.9431 13.4841 8.61602 12.8663 8.31227 12.236H8.31228ZM16.5608 14.5746C16.7921 14.1734 17.0145 13.7672 17.2278 13.356C17.5201 14.0166 17.7779 14.6919 18.0002 15.3792C17.2919 15.5384 16.5757 15.6605 15.8547 15.745C16.0978 15.3596 16.3332 14.9694 16.5608 14.5746H16.5608ZM17.2185 11.0812C17.0059 10.6778 16.7854 10.2789 16.5569 9.88432C16.332 9.49593 16.0989 9.11252 15.8574 8.7341C16.5913 8.82673 17.2945 8.94989 17.9546 9.10064C17.7427 9.77277 17.497 10.4338 17.2185 11.0812H17.2185ZM12.511 5.94363C12.9894 6.46513 13.4411 7.01047 13.8645 7.57756C12.9589 7.53476 12.0527 7.53456 11.1461 7.57695C11.593 6.98769 12.0507 6.44026 12.511 5.94363ZM7.21284 3.14085C7.98237 2.69542 9.68379 3.33058 11.4771 4.92285C11.5917 5.02464 11.7069 5.13121 11.8222 5.24145C11.1163 6.0055 10.4617 6.8155 9.86294 7.66612C8.83066 7.7587 7.80546 7.91804 6.79378 8.14312C6.73511 7.90826 6.68242 7.67204 6.6357 7.43446V7.43456C6.20339 5.2254 6.49044 3.55904 7.21284 3.14085ZM6.09132 15.1824C5.90065 15.1278 5.71139 15.0685 5.52354 15.0046C4.54952 14.6982 3.6402 14.2151 2.841 13.5796C2.61203 13.4225 2.41771 13.2201 2.27005 12.9849C2.12239 12.7498 2.02453 12.4868 1.98251 12.2123C1.98251 11.3749 3.23116 10.3066 5.31368 9.58057C5.57507 9.48983 5.83894 9.40681 6.1053 9.33149C6.41452 10.3234 6.789 11.2938 7.2263 12.2363C6.78351 13.1922 6.40436 14.1764 6.09132 15.1824ZM11.4159 19.661C10.6639 20.3517 9.79112 20.8981 8.84127 21.2729H8.84117C8.59073 21.3927 8.31837 21.46 8.04093 21.4704C7.76348 21.4808 7.48684 21.4343 7.22811 21.3335C6.50255 20.9152 6.20105 19.2998 6.61238 17.1332C6.66129 16.8771 6.71729 16.6226 6.78038 16.3696C7.80221 16.5891 8.83775 16.739 9.87988 16.8183C10.4839 17.6737 11.1434 18.4886 11.8542 19.2575C11.7114 19.3956 11.5653 19.5301 11.4159 19.661ZM12.5382 18.5505C12.0725 18.048 11.608 17.4922 11.1543 16.8944C11.5947 16.9117 12.0432 16.9204 12.5 16.9204C12.9688 16.9204 13.4316 16.9102 13.8884 16.8896C13.467 17.4659 13.0163 18.0203 12.5382 18.5505V18.5505ZM18.5047 19.9175C18.4835 20.1943 18.4057 20.4639 18.2762 20.7095C18.1467 20.955 17.9681 21.1714 17.7517 21.3453C17.0268 21.7649 15.4767 21.2195 13.8051 19.781C13.6134 19.6161 13.4206 19.4403 13.2267 19.2537C13.9237 18.4821 14.5678 17.6642 15.1546 16.8057C16.2028 16.7173 17.2436 16.5569 18.2697 16.3256C18.3165 16.5149 18.358 16.7004 18.3942 16.882C18.617 17.8785 18.6544 18.9075 18.5047 19.9175V19.9175ZM19.3389 15.0101H19.3388C19.213 15.0517 19.084 15.092 18.9525 15.1309C18.6308 14.1344 18.2417 13.1609 17.7878 12.2172C18.2245 11.2862 18.5985 10.3269 18.9072 9.34593C19.1424 9.41413 19.3708 9.48593 19.5909 9.56172C21.7193 10.2943 23.0175 11.3776 23.0175 12.2123C23.0175 13.1015 21.6154 14.2558 19.3389 15.0101V15.0101Z" fill="black"/>
<path d="M12.5 10.1585C12.9062 10.1585 13.3033 10.2789 13.6411 10.5046C13.9789 10.7303 14.2421 11.0511 14.3976 11.4264C14.553 11.8017 14.5937 12.2146 14.5145 12.613C14.4352 13.0115 14.2396 13.3774 13.9524 13.6647C13.6651 13.9519 13.2991 14.1475 12.9007 14.2268C12.5023 14.306 12.0894 14.2653 11.7141 14.1099C11.3388 13.9544 11.018 13.6912 10.7923 13.3534C10.5666 13.0156 10.4462 12.6185 10.4462 12.2123C10.4462 11.6676 10.6626 11.1452 11.0477 10.7601C11.4329 10.3749 11.9553 10.1585 12.5 10.1585Z" fill="black"/>
</g>
<defs>
<clipPath id="clip0">
<rect width="23" height="20.4635" fill="white" transform="translate(1 2)"/>
</clipPath>
</defs>
</svg>
